{
	"asset":{
		"generator":"Khronos glTF Blender I/O v4.1.62",
		"version":"2.0"
	},
	"extensionsUsed":[
		"KHR_materials_variants",
		"KHR_materials_emissive_strength"
	],
	"extensionsRequired":[
		"KHR_materials_variants"
	],
	"extensions":{
		"KHR_materials_variants":{
			"variants":[
				{
					"name":"midnight"
				},
				{
					"name":"beach"
				},
				{
					"name":"street"
				}
			]
		}
	},
	"scene":0,
	"scenes":[
		{
			"name":"Scene",
			"nodes":[
				2,
				3,
				4,
				5
			]
		}
	],
	"nodes":[
		{
			"mesh":0,
			"name":"Shoe"
		},
		{
			"children":[
				0
			],
			"name":"g_Shoe"
		},
		{
			"children":[
				1
			],
			"name":"Shoeobj",
			"scale":[
				0.14893949031829834,
				0.14893949031829834,
				0.14893949031829834
			],
			"translation":[
				0.001610487699508667,
				0.07590250670909882,
				0.004850998520851135
			]
		},
		{
			"mesh":1,
			"name":"Plane"
		},
		{
			"camera":0,
			"name":"Camera",
			"rotation":[
				-0.30915501713752747,
				0.16748400032520294,
				0.04899007827043533,
				0.93486487865448
			],
			"translation":[
				0.13087785243988037,
				0.29184097051620483,
				0.30487966537475586
			]
		},
		{
			"mesh":2,
			"name":"AreaLight",
			"translation":[
				0,
				2,
				0
			]
		}
	],
	"cameras":[
		{
			"name":"Camera.001",
			"perspective":{
				"aspectRatio":1.7777777777777777,
				"yfov":0.6280287869355033,
				"zfar":1000,
				"znear":0.10000000149011612
			},
			"type":"perspective"
		}
	],
	"materials":[
		{
			"name":"phong1SG",
			"normalTexture":{
				"index":0
			},
			"occlusionTexture":{
				"index":1
			},
			"pbrMetallicRoughness":{
				"baseColorTexture":{
					"index":2
				},
				"metallicRoughnessTexture":{
					"index":1
				}
			}
		},
		{
			"name":"phong1SG.001",
			"normalTexture":{
				"index":3
			},
			"occlusionTexture":{
				"index":4
			},
			"pbrMetallicRoughness":{
				"baseColorTexture":{
					"index":5
				},
				"metallicRoughnessTexture":{
					"index":4
				}
			}
		},
		{
			"name":"phong1SG.002",
			"normalTexture":{
				"index":6
			},
			"occlusionTexture":{
				"index":7
			},
			"pbrMetallicRoughness":{
				"baseColorTexture":{
					"index":8
				},
				"metallicRoughnessTexture":{
					"index":7
				}
			}
		},
		{
			"doubleSided":true,
			"name":"Plane",
			"pbrMetallicRoughness":{
				"baseColorFactor":[
					0.800000011920929,
					0.800000011920929,
					0.800000011920929,
					1
				],
				"metallicFactor":0,
				"roughnessFactor":0.5
			}
		},
		{
			"doubleSided":true,
			"emissiveFactor":[
				1,
				1,
				1
			],
			"extensions":{
				"KHR_materials_emissive_strength":{
					"emissiveStrength":10
				}
			},
			"name":"AreaLight",
			"pbrMetallicRoughness":{
				"baseColorFactor":[
					0.800000011920929,
					0.800000011920929,
					0.800000011920929,
					1
				],
				"metallicFactor":0,
				"roughnessFactor":0.5
			}
		}
	],
	"meshes":[
		{
			"name":"shoe",
			"primitives":[
				{
					"attributes":{
						"POSITION":0,
						"NORMAL":1,
						"TEXCOORD_0":2
					},
					"extensions":{
						"KHR_materials_variants":{
							"mappings":[
								{
									"material":0,
									"variants":[
										0
									]
								},
								{
									"material":1,
									"variants":[
										1
									]
								},
								{
									"material":2,
									"variants":[
										2
									]
								}
							]
						}
					},
					"indices":3,
					"material":0
				}
			]
		},
		{
			"name":"Plane",
			"primitives":[
				{
					"attributes":{
						"POSITION":4,
						"NORMAL":5,
						"TEXCOORD_0":6
					},
					"indices":7,
					"material":3
				}
			]
		},
		{
			"name":"AreaLight",
			"primitives":[
				{
					"attributes":{
						"POSITION":8,
						"NORMAL":9,
						"TEXCOORD_0":10
					},
					"indices":7,
					"material":4
				}
			]
		}
	],
	"textures":[
		{
			"sampler":0,
			"source":0
		},
		{
			"sampler":0,
			"source":1
		},
		{
			"sampler":0,
			"source":2
		},
		{
			"sampler":0,
			"source":0
		},
		{
			"sampler":0,
			"source":1
		},
		{
			"sampler":0,
			"source":3
		},
		{
			"sampler":0,
			"source":0
		},
		{
			"sampler":0,
			"source":1
		},
		{
			"sampler":0,
			"source":4
		}
	],
	"images":[
		{
			"mimeType":"image/jpeg",
			"name":"normal",
			"uri":"normal.jpg"
		},
		{
			"mimeType":"image/jpeg",
			"name":"occlusionRougnessMetalness",
			"uri":"occlusionRougnessMetalness.jpg"
		},
		{
			"mimeType":"image/jpeg",
			"name":"diffuseMidnight",
			"uri":"diffuseMidnight.jpg"
		},
		{
			"mimeType":"image/jpeg",
			"name":"diffuseBeach",
			"uri":"diffuseBeach.jpg"
		},
		{
			"mimeType":"image/jpeg",
			"name":"diffuseStreet",
			"uri":"diffuseStreet.jpg"
		}
	],
	"accessors":[
		{
			"bufferView":0,
			"componentType":5126,
			"count":13540,
			"max":[
				1.0000001192092896,
				0.5139704942703247,
				0.38874176144599915
			],
			"min":[
				-1,
				-0.5139704942703247,
				-0.38874176144599915
			],
			"type":"VEC3"
		},
		{
			"bufferView":1,
			"componentType":5126,
			"count":13540,
			"type":"VEC3"
		},
		{
			"bufferView":2,
			"componentType":5126,
			"count":13540,
			"type":"VEC2"
		},
		{
			"bufferView":3,
			"componentType":5123,
			"count":68100,
			"type":"SCALAR"
		},
		{
			"bufferView":4,
			"componentType":5126,
			"count":4,
			"max":[
				1,
				0,
				1
			],
			"min":[
				-1,
				0,
				-1
			],
			"type":"VEC3"
		},
		{
			"bufferView":5,
			"componentType":5126,
			"count":4,
			"type":"VEC3"
		},
		{
			"bufferView":6,
			"componentType":5126,
			"count":4,
			"type":"VEC2"
		},
		{
			"bufferView":7,
			"componentType":5123,
			"count":6,
			"type":"SCALAR"
		},
		{
			"bufferView":8,
			"componentType":5126,
			"count":4,
			"max":[
				1,
				0,
				1
			],
			"min":[
				-1,
				0,
				-1
			],
			"type":"VEC3"
		},
		{
			"bufferView":9,
			"componentType":5126,
			"count":4,
			"type":"VEC3"
		},
		{
			"bufferView":10,
			"componentType":5126,
			"count":4,
			"type":"VEC2"
		}
	],
	"bufferViews":[
		{
			"buffer":0,
			"byteLength":162480,
			"byteOffset":0,
			"target":34962
		},
		{
			"buffer":0,
			"byteLength":162480,
			"byteOffset":162480,
			"target":34962
		},
		{
			"buffer":0,
			"byteLength":108320,
			"byteOffset":324960,
			"target":34962
		},
		{
			"buffer":0,
			"byteLength":136200,
			"byteOffset":433280,
			"target":34963
		},
		{
			"buffer":0,
			"byteLength":48,
			"byteOffset":569480,
			"target":34962
		},
		{
			"buffer":0,
			"byteLength":48,
			"byteOffset":569528,
			"target":34962
		},
		{
			"buffer":0,
			"byteLength":32,
			"byteOffset":569576,
			"target":34962
		},
		{
			"buffer":0,
			"byteLength":12,
			"byteOffset":569608,
			"target":34963
		},
		{
			"buffer":0,
			"byteLength":48,
			"byteOffset":569620,
			"target":34962
		},
		{
			"buffer":0,
			"byteLength":48,
			"byteOffset":569668,
			"target":34962
		},
		{
			"buffer":0,
			"byteLength":32,
			"byteOffset":569716,
			"target":34962
		}
	],
	"samplers":[
		{
			"magFilter":9729,
			"minFilter":9987
		}
	],
	"buffers":[
		{
			"byteLength":569748,
			"uri":"shoe.bin"
		}
	]
}
