{
	"asset":{
		"generator":"Khronos glTF Blender I/O v4.1.62",
		"version":"2.0"
	},
	"extensionsUsed":[
		"KHR_materials_specular",
		"KHR_materials_ior",
		"KHR_materials_emissive_strength"
	],
	"scene":0,
	"scenes":[
		{
			"name":"Scene",
			"nodes":[
				0,
				1,
				2,
				3
			]
		}
	],
	"nodes":[
		{
			"mesh":0,
			"name":"WaterBottle",
			"rotation":[
				0,
				1,
				0,
				0
			],
			"translation":[
				0,
				0.12999999523162842,
				0
			]
		},
		{
			"mesh":1,
			"name":"Plane"
		},
		{
			"mesh":2,
			"name":"AreaLight"
		},
		{
			"camera":0,
			"name":"Camera",
			"rotation":[
				-0.13193362951278687,
				0.6946895122528076,
				0.13193362951278687,
				0.6946895122528076
			],
			"scale":[
				0.10000000149011612,
				0.09999998658895493,
				0.09999998658895493
			],
			"translation":[
				0.800000011920929,
				0.4570409953594208,
				0
			]
		}
	],
	"cameras":[
		{
			"name":"Camera.001",
			"perspective":{
				"aspectRatio":1.7777777777777777,
				"yfov":0.39959651231765747,
				"zfar":100,
				"znear":0.10000000149011612
			},
			"type":"perspective"
		}
	],
	"materials":[
		{
			"name":"BottleMat",
			"occlusionTexture":{
				"index":0
			},
			"pbrMetallicRoughness":{
				"baseColorTexture":{
					"index":1
				},
				"metallicRoughnessTexture":{
					"index":0
				}
			}
		},
		{
			"doubleSided":true,
			"extensions":{
				"KHR_materials_specular":{
					"specularFactor":0
				},
				"KHR_materials_ior":{
					"ior":1.4500000476837158
				}
			},
			"name":"Material.001",
			"pbrMetallicRoughness":{
				"baseColorFactor":[
					0.800000011920929,
					0.800000011920929,
					0.800000011920929,
					1
				],
				"metallicFactor":0,
				"roughnessFactor":0.5
			}
		},
		{
			"doubleSided":true,
			"emissiveFactor":[
				1,
				1,
				1
			],
			"extensions":{
				"KHR_materials_emissive_strength":{
					"emissiveStrength":10
				}
			},
			"name":"AreaLight",
			"pbrMetallicRoughness":{
				"metallicFactor":0,
				"roughnessFactor":0.5
			}
		}
	],
	"meshes":[
		{
			"name":"WaterBottle",
			"primitives":[
				{
					"attributes":{
						"POSITION":0,
						"NORMAL":1,
						"TEXCOORD_0":2
					},
					"indices":3,
					"material":0
				}
			]
		},
		{
			"name":"Plane",
			"primitives":[
				{
					"attributes":{
						"POSITION":4,
						"NORMAL":5,
						"TEXCOORD_0":6
					},
					"indices":7,
					"material":1
				}
			]
		},
		{
			"name":"AreaLight",
			"primitives":[
				{
					"attributes":{
						"POSITION":8,
						"NORMAL":9,
						"TEXCOORD_0":10
					},
					"indices":7,
					"material":2
				}
			]
		}
	],
	"textures":[
		{
			"sampler":0,
			"source":0
		},
		{
			"sampler":0,
			"source":1
		}
	],
	"images":[
		{
			"mimeType":"image/png",
			"name":"WaterBottle_occlusionRoughnessMetallic",
			"uri":"WaterBottle_occlusionRoughnessMetallic.png"
		},
		{
			"mimeType":"image/png",
			"name":"WaterBottle_baseColor",
			"uri":"WaterBottle_baseColor.png"
		}
	],
	"accessors":[
		{
			"bufferView":0,
			"componentType":5126,
			"count":2549,
			"max":[
				0.054450009018182755,
				0.13022033870220184,
				0.05445002391934395
			],
			"min":[
				-0.054450009018182755,
				-0.13022033870220184,
				-0.05445002391934395
			],
			"type":"VEC3"
		},
		{
			"bufferView":1,
			"componentType":5126,
			"count":2549,
			"type":"VEC3"
		},
		{
			"bufferView":2,
			"componentType":5126,
			"count":2549,
			"type":"VEC2"
		},
		{
			"bufferView":3,
			"componentType":5123,
			"count":13530,
			"type":"SCALAR"
		},
		{
			"bufferView":4,
			"componentType":5126,
			"count":4,
			"max":[
				1,
				0,
				1
			],
			"min":[
				-1,
				0,
				-1
			],
			"type":"VEC3"
		},
		{
			"bufferView":5,
			"componentType":5126,
			"count":4,
			"type":"VEC3"
		},
		{
			"bufferView":6,
			"componentType":5126,
			"count":4,
			"type":"VEC2"
		},
		{
			"bufferView":7,
			"componentType":5123,
			"count":6,
			"type":"SCALAR"
		},
		{
			"bufferView":8,
			"componentType":5126,
			"count":4,
			"max":[
				1.5,
				2,
				-0.5
			],
			"min":[
				0.5,
				2,
				-1.5
			],
			"type":"VEC3"
		},
		{
			"bufferView":9,
			"componentType":5126,
			"count":4,
			"type":"VEC3"
		},
		{
			"bufferView":10,
			"componentType":5126,
			"count":4,
			"type":"VEC2"
		}
	],
	"bufferViews":[
		{
			"buffer":0,
			"byteLength":30588,
			"byteOffset":0,
			"target":34962
		},
		{
			"buffer":0,
			"byteLength":30588,
			"byteOffset":30588,
			"target":34962
		},
		{
			"buffer":0,
			"byteLength":20392,
			"byteOffset":61176,
			"target":34962
		},
		{
			"buffer":0,
			"byteLength":27060,
			"byteOffset":81568,
			"target":34963
		},
		{
			"buffer":0,
			"byteLength":48,
			"byteOffset":108628,
			"target":34962
		},
		{
			"buffer":0,
			"byteLength":48,
			"byteOffset":108676,
			"target":34962
		},
		{
			"buffer":0,
			"byteLength":32,
			"byteOffset":108724,
			"target":34962
		},
		{
			"buffer":0,
			"byteLength":12,
			"byteOffset":108756,
			"target":34963
		},
		{
			"buffer":0,
			"byteLength":48,
			"byteOffset":108768,
			"target":34962
		},
		{
			"buffer":0,
			"byteLength":48,
			"byteOffset":108816,
			"target":34962
		},
		{
			"buffer":0,
			"byteLength":32,
			"byteOffset":108864,
			"target":34962
		}
	],
	"samplers":[
		{
			"magFilter":9729,
			"minFilter":9987
		}
	],
	"buffers":[
		{
			"byteLength":108896,
			"uri":"waterbottle.bin"
		}
	]
}
