{
	"asset":{
		"generator":"Khronos glTF Blender I/O v4.1.62",
		"version":"2.0"
	},
	"extensionsUsed":[
		"KHR_lights_punctual"
	],
	"extensionsRequired":[
		"KHR_lights_punctual"
	],
	"extensions":{
		"KHR_lights_punctual":{
			"lights":[
				{
					"color":[
						1,
						1,
						1
					],
					"intensity":54351.41306588226,
					"type":"point",
					"name":"Light"
				}
			]
		}
	},
	"scene":0,
	"scenes":[
		{
			"name":"Scene",
			"nodes":[
				0,
				1,
				2,
				3,
				4,
				5,
				6,
				7,
				8,
				9,
				10
			]
		}
	],
	"nodes":[
		{
			"mesh":0,
			"name":"Bed"
		},
		{
			"mesh":1,
			"name":"DecalBlend",
			"rotation":[
				-0.47185850143432617,
				0,
				0,
				0.8816744089126587
			],
			"translation":[
				0,
				0,
				0.4090209901332855
			]
		},
		{
			"mesh":2,
			"name":"DecalOpaque",
			"rotation":[
				-0.47185850143432617,
				0,
				0,
				0.8816744089126587
			],
			"translation":[
				0,
				0,
				0.4090207517147064
			]
		},
		{
			"mesh":3,
			"name":"GreenArrows",
			"translation":[
				0.5,
				1.068150520324707,
				0.004999999888241291
			]
		},
		{
			"mesh":4,
			"name":"TestBlend",
			"translation":[
				-1.5,
				0,
				0
			]
		},
		{
			"mesh":5,
			"name":"TestCutoff25"
		},
		{
			"mesh":6,
			"name":"TestCutoff75",
			"translation":[
				3,
				0,
				0
			]
		},
		{
			"mesh":7,
			"name":"TestCutoffDefault",
			"translation":[
				1.5,
				0,
				0
			]
		},
		{
			"mesh":8,
			"name":"TestOpaque",
			"translation":[
				-3,
				0,
				0
			]
		},
		{
			"extensions":{
				"KHR_lights_punctual":{
					"light":0
				}
			},
			"name":"Light",
			"rotation":[
				-0.28416648507118225,
				0.7269421815872192,
				0.3420342206954956,
				0.5232753753662109
			],
			"translation":[
				0,
				1,
				9
			]
		},
		{
			"camera":0,
			"name":"Camera",
			"translation":[
				0,
				1,
				8.5
			]
		}
	],
	"cameras":[
		{
			"name":"Camera",
			"perspective":{
				"aspectRatio":1.7777777777777777,
				"yfov":0.6280287869355033,
				"zfar":100,
				"znear":0.10000000149011612
			},
			"type":"perspective"
		}
	],
	"materials":[
		{
			"name":"MatBed",
			"normalTexture":{
				"index":0
			},
			"occlusionTexture":{
				"index":1
			},
			"pbrMetallicRoughness":{
				"baseColorTexture":{
					"index":2
				},
				"metallicRoughnessTexture":{
					"index":1
				}
			}
		},
		{
			"alphaMode":"BLEND",
			"doubleSided":true,
			"name":"MatBlend",
			"pbrMetallicRoughness":{
				"baseColorTexture":{
					"index":3
				},
				"metallicFactor":0,
				"roughnessFactor":0.800000011920929
			}
		},
		{
			"doubleSided":true,
			"name":"MatOpaque",
			"pbrMetallicRoughness":{
				"baseColorTexture":{
					"index":4
				},
				"metallicFactor":0,
				"roughnessFactor":0.800000011920929
			}
		},
		{
			"alphaCutoff":0.25,
			"alphaMode":"MASK",
			"doubleSided":true,
			"name":"MatCutoff25",
			"pbrMetallicRoughness":{
				"baseColorTexture":{
					"index":5
				},
				"metallicFactor":0,
				"roughnessFactor":0.800000011920929
			}
		},
		{
			"alphaCutoff":0.75,
			"alphaMode":"MASK",
			"doubleSided":true,
			"name":"MatCutoff75",
			"pbrMetallicRoughness":{
				"baseColorTexture":{
					"index":6
				},
				"metallicFactor":0,
				"roughnessFactor":0.800000011920929
			}
		},
		{
			"alphaCutoff":0.5,
			"alphaMode":"MASK",
			"doubleSided":true,
			"name":"MatCutoffDefault",
			"pbrMetallicRoughness":{
				"baseColorTexture":{
					"index":7
				},
				"metallicFactor":0,
				"roughnessFactor":0.800000011920929
			}
		}
	],
	"meshes":[
		{
			"name":"BedMesh",
			"primitives":[
				{
					"attributes":{
						"POSITION":0,
						"NORMAL":1,
						"TEXCOORD_0":2
					},
					"indices":3,
					"material":0
				}
			]
		},
		{
			"name":"DecalBlendMesh",
			"primitives":[
				{
					"attributes":{
						"POSITION":4,
						"NORMAL":5,
						"TEXCOORD_0":6
					},
					"indices":7,
					"material":1
				}
			]
		},
		{
			"name":"DecalOpaqueMesh",
			"primitives":[
				{
					"attributes":{
						"POSITION":8,
						"NORMAL":9,
						"TEXCOORD_0":10
					},
					"indices":11,
					"material":2
				}
			]
		},
		{
			"name":"GreenArrowsMesh",
			"primitives":[
				{
					"attributes":{
						"POSITION":12,
						"NORMAL":13,
						"TEXCOORD_0":14
					},
					"indices":15,
					"material":2
				}
			]
		},
		{
			"name":"TestBlendMesh",
			"primitives":[
				{
					"attributes":{
						"POSITION":16,
						"NORMAL":17,
						"TEXCOORD_0":18
					},
					"indices":7,
					"material":1
				}
			]
		},
		{
			"name":"TestCutoff25Mesh",
			"primitives":[
				{
					"attributes":{
						"POSITION":19,
						"NORMAL":20,
						"TEXCOORD_0":21
					},
					"indices":7,
					"material":3
				}
			]
		},
		{
			"name":"TestCutoff75Mesh",
			"primitives":[
				{
					"attributes":{
						"POSITION":22,
						"NORMAL":23,
						"TEXCOORD_0":24
					},
					"indices":7,
					"material":4
				}
			]
		},
		{
			"name":"TestCutoffDefaultMesh",
			"primitives":[
				{
					"attributes":{
						"POSITION":25,
						"NORMAL":26,
						"TEXCOORD_0":27
					},
					"indices":7,
					"material":5
				}
			]
		},
		{
			"name":"TestOpaqueMesh",
			"primitives":[
				{
					"attributes":{
						"POSITION":28,
						"NORMAL":29,
						"TEXCOORD_0":30
					},
					"indices":7,
					"material":2
				}
			]
		}
	],
	"textures":[
		{
			"sampler":0,
			"source":0
		},
		{
			"sampler":0,
			"source":1
		},
		{
			"sampler":0,
			"source":2
		},
		{
			"sampler":0,
			"source":3
		},
		{
			"sampler":0,
			"source":3
		},
		{
			"sampler":0,
			"source":3
		},
		{
			"sampler":0,
			"source":3
		},
		{
			"sampler":0,
			"source":3
		}
	],
	"images":[
		{
			"mimeType":"image/jpeg",
			"name":"MatBed_normal",
			"uri":"MatBed_normal.jpg"
		},
		{
			"mimeType":"image/jpeg",
			"name":"MatBed_occlusionRoughnessMetallic",
			"uri":"MatBed_occlusionRoughnessMetallic.jpg"
		},
		{
			"mimeType":"image/jpeg",
			"name":"MatBed_baseColor",
			"uri":"MatBed_baseColor.jpg"
		},
		{
			"mimeType":"image/png",
			"name":"AlphaBlendLabels",
			"uri":"AlphaBlendLabels.png"
		}
	],
	"accessors":[
		{
			"bufferView":0,
			"componentType":5126,
			"count":72,
			"max":[
				4.300000190734863,
				2.2995333671569824,
				0.550000011920929
			],
			"min":[
				-4.300000190734863,
				-0.10000002384185791,
				-0.75
			],
			"type":"VEC3"
		},
		{
			"bufferView":1,
			"componentType":5126,
			"count":72,
			"type":"VEC3"
		},
		{
			"bufferView":2,
			"componentType":5126,
			"count":72,
			"type":"VEC2"
		},
		{
			"bufferView":3,
			"componentType":5123,
			"count":90,
			"type":"SCALAR"
		},
		{
			"bufferView":4,
			"componentType":5126,
			"count":4,
			"max":[
				-0.9919999837875366,
				0.11400000005960464,
				0.009999999776482582
			],
			"min":[
				-1.2080000638961792,
				-0.11400000005960464,
				0.009999999776482582
			],
			"type":"VEC3"
		},
		{
			"bufferView":5,
			"componentType":5126,
			"count":4,
			"type":"VEC3"
		},
		{
			"bufferView":6,
			"componentType":5126,
			"count":4,
			"type":"VEC2"
		},
		{
			"bufferView":7,
			"componentType":5123,
			"count":6,
			"type":"SCALAR"
		},
		{
			"bufferView":8,
			"componentType":5126,
			"count":32,
			"max":[
				3.2899999618530273,
				0.15600000321865082,
				0.009999990463256836
			],
			"min":[
				-3.2899999618530273,
				-0.15600000321865082,
				-5.364418029785156e-07
			],
			"type":"VEC3"
		},
		{
			"bufferView":9,
			"componentType":5126,
			"count":32,
			"type":"VEC3"
		},
		{
			"bufferView":10,
			"componentType":5126,
			"count":32,
			"type":"VEC2"
		},
		{
			"bufferView":11,
			"componentType":5123,
			"count":48,
			"type":"SCALAR"
		},
		{
			"bufferView":12,
			"componentType":5126,
			"count":9,
			"max":[
				3.0900001525878906,
				0.48338040709495544,
				0
			],
			"min":[
				0,
				-0.4815960228443146,
				0
			],
			"type":"VEC3"
		},
		{
			"bufferView":13,
			"componentType":5126,
			"count":9,
			"type":"VEC3"
		},
		{
			"bufferView":14,
			"componentType":5126,
			"count":9,
			"type":"VEC2"
		},
		{
			"bufferView":15,
			"componentType":5123,
			"count":9,
			"type":"SCALAR"
		},
		{
			"bufferView":16,
			"componentType":5126,
			"count":4,
			"max":[
				0.550000011920929,
				1.9699997901916504,
				0
			],
			"min":[
				-0.550000011920929,
				0.10000008344650269,
				0
			],
			"type":"VEC3"
		},
		{
			"bufferView":17,
			"componentType":5126,
			"count":4,
			"type":"VEC3"
		},
		{
			"bufferView":18,
			"componentType":5126,
			"count":4,
			"type":"VEC2"
		},
		{
			"bufferView":19,
			"componentType":5126,
			"count":4,
			"max":[
				0.550000011920929,
				1.9699997901916504,
				0
			],
			"min":[
				-0.550000011920929,
				0.10000008344650269,
				0
			],
			"type":"VEC3"
		},
		{
			"bufferView":20,
			"componentType":5126,
			"count":4,
			"type":"VEC3"
		},
		{
			"bufferView":21,
			"componentType":5126,
			"count":4,
			"type":"VEC2"
		},
		{
			"bufferView":22,
			"componentType":5126,
			"count":4,
			"max":[
				0.550000011920929,
				1.9699997901916504,
				0
			],
			"min":[
				-0.550000011920929,
				0.10000008344650269,
				0
			],
			"type":"VEC3"
		},
		{
			"bufferView":23,
			"componentType":5126,
			"count":4,
			"type":"VEC3"
		},
		{
			"bufferView":24,
			"componentType":5126,
			"count":4,
			"type":"VEC2"
		},
		{
			"bufferView":25,
			"componentType":5126,
			"count":4,
			"max":[
				0.550000011920929,
				1.9699997901916504,
				0
			],
			"min":[
				-0.550000011920929,
				0.10000008344650269,
				0
			],
			"type":"VEC3"
		},
		{
			"bufferView":26,
			"componentType":5126,
			"count":4,
			"type":"VEC3"
		},
		{
			"bufferView":27,
			"componentType":5126,
			"count":4,
			"type":"VEC2"
		},
		{
			"bufferView":28,
			"componentType":5126,
			"count":4,
			"max":[
				0.550000011920929,
				1.9699997901916504,
				0
			],
			"min":[
				-0.550000011920929,
				0.10000008344650269,
				0
			],
			"type":"VEC3"
		},
		{
			"bufferView":29,
			"componentType":5126,
			"count":4,
			"type":"VEC3"
		},
		{
			"bufferView":30,
			"componentType":5126,
			"count":4,
			"type":"VEC2"
		}
	],
	"bufferViews":[
		{
			"buffer":0,
			"byteLength":864,
			"byteOffset":0,
			"target":34962
		},
		{
			"buffer":0,
			"byteLength":864,
			"byteOffset":864,
			"target":34962
		},
		{
			"buffer":0,
			"byteLength":576,
			"byteOffset":1728,
			"target":34962
		},
		{
			"buffer":0,
			"byteLength":180,
			"byteOffset":2304,
			"target":34963
		},
		{
			"buffer":0,
			"byteLength":48,
			"byteOffset":2484,
			"target":34962
		},
		{
			"buffer":0,
			"byteLength":48,
			"byteOffset":2532,
			"target":34962
		},
		{
			"buffer":0,
			"byteLength":32,
			"byteOffset":2580,
			"target":34962
		},
		{
			"buffer":0,
			"byteLength":12,
			"byteOffset":2612,
			"target":34963
		},
		{
			"buffer":0,
			"byteLength":384,
			"byteOffset":2624,
			"target":34962
		},
		{
			"buffer":0,
			"byteLength":384,
			"byteOffset":3008,
			"target":34962
		},
		{
			"buffer":0,
			"byteLength":256,
			"byteOffset":3392,
			"target":34962
		},
		{
			"buffer":0,
			"byteLength":96,
			"byteOffset":3648,
			"target":34963
		},
		{
			"buffer":0,
			"byteLength":108,
			"byteOffset":3744,
			"target":34962
		},
		{
			"buffer":0,
			"byteLength":108,
			"byteOffset":3852,
			"target":34962
		},
		{
			"buffer":0,
			"byteLength":72,
			"byteOffset":3960,
			"target":34962
		},
		{
			"buffer":0,
			"byteLength":18,
			"byteOffset":4032,
			"target":34963
		},
		{
			"buffer":0,
			"byteLength":48,
			"byteOffset":4052,
			"target":34962
		},
		{
			"buffer":0,
			"byteLength":48,
			"byteOffset":4100,
			"target":34962
		},
		{
			"buffer":0,
			"byteLength":32,
			"byteOffset":4148,
			"target":34962
		},
		{
			"buffer":0,
			"byteLength":48,
			"byteOffset":4180,
			"target":34962
		},
		{
			"buffer":0,
			"byteLength":48,
			"byteOffset":4228,
			"target":34962
		},
		{
			"buffer":0,
			"byteLength":32,
			"byteOffset":4276,
			"target":34962
		},
		{
			"buffer":0,
			"byteLength":48,
			"byteOffset":4308,
			"target":34962
		},
		{
			"buffer":0,
			"byteLength":48,
			"byteOffset":4356,
			"target":34962
		},
		{
			"buffer":0,
			"byteLength":32,
			"byteOffset":4404,
			"target":34962
		},
		{
			"buffer":0,
			"byteLength":48,
			"byteOffset":4436,
			"target":34962
		},
		{
			"buffer":0,
			"byteLength":48,
			"byteOffset":4484,
			"target":34962
		},
		{
			"buffer":0,
			"byteLength":32,
			"byteOffset":4532,
			"target":34962
		},
		{
			"buffer":0,
			"byteLength":48,
			"byteOffset":4564,
			"target":34962
		},
		{
			"buffer":0,
			"byteLength":48,
			"byteOffset":4612,
			"target":34962
		},
		{
			"buffer":0,
			"byteLength":32,
			"byteOffset":4660,
			"target":34962
		}
	],
	"samplers":[
		{
			"magFilter":9729,
			"minFilter":9987
		}
	],
	"buffers":[
		{
			"byteLength":4692,
			"uri":"alpha_blend_mode_test.bin"
		}
	]
}
