{
	"asset":{
		"generator":"Khronos glTF Blender I/O v4.1.62",
		"version":"2.0"
	},
	"extensionsUsed":[
		"KHR_materials_transmission",
		"KHR_materials_emissive_strength"
	],
	"scene":0,
	"scenes":[
		{
			"name":"Scene",
			"nodes":[
				0,
				1,
				2,
				3,
				4,
				5,
				6,
				7
			]
		}
	],
	"nodes":[
		{
			"camera":0,
			"name":"Camera",
			"rotation":[
				-0.08715567737817764,
				0,
				0,
				0.9961947798728943
			],
			"translation":[
				0,
				1,
				4
			]
		},
		{
			"mesh":0,
			"name":"Plane",
			"scale":[
				5,
				5,
				5
			]
		},
		{
			"mesh":1,
			"name":"Sphere1",
			"scale":[
				0.19999998807907104,
				0.19999998807907104,
				0.19999998807907104
			],
			"translation":[
				-1,
				0.20000000298023224,
				0
			]
		},
		{
			"mesh":2,
			"name":"Sphere2",
			"scale":[
				0.19999998807907104,
				0.19999998807907104,
				0.19999998807907104
			],
			"translation":[
				-0.5,
				0.20000000298023224,
				0
			]
		},
		{
			"mesh":3,
			"name":"Sphere3",
			"scale":[
				0.19999998807907104,
				0.19999998807907104,
				0.19999998807907104
			],
			"translation":[
				0,
				0.20000000298023224,
				0
			]
		},
		{
			"mesh":4,
			"name":"Sphere4",
			"scale":[
				0.19999998807907104,
				0.19999998807907104,
				0.19999998807907104
			],
			"translation":[
				0.5,
				0.20000000298023224,
				0
			]
		},
		{
			"mesh":5,
			"name":"Sphere5",
			"scale":[
				0.19999998807907104,
				0.19999998807907104,
				0.19999998807907104
			],
			"translation":[
				1,
				0.20000000298023224,
				0
			]
		},
		{
			"mesh":6,
			"name":"AreaLight",
			"rotation":[
				0,
				0,
				0.965925931930542,
				0.258819043636322
			],
			"translation":[
				2,
				3,
				0
			]
		}
	],
	"cameras":[
		{
			"name":"Camera",
			"perspective":{
				"aspectRatio":1.7777777777777777,
				"yfov":0.39959652046304894,
				"zfar":100,
				"znear":0.10000000149011612
			},
			"type":"perspective"
		}
	],
	"materials":[
		{
			"doubleSided":true,
			"name":"Plane",
			"pbrMetallicRoughness":{
				"baseColorFactor":[
					0.800000011920929,
					0.800000011920929,
					0.800000011920929,
					1
				],
				"metallicFactor":0,
				"roughnessFactor":0.5
			}
		},
		{
			"doubleSided":true,
			"extensions":{
				"KHR_materials_transmission":{
					"transmissionFactor":1
				}
			},
			"name":"Sphere1",
			"pbrMetallicRoughness":{
				"metallicFactor":0,
				"roughnessFactor":0
			}
		},
		{
			"doubleSided":true,
			"extensions":{
				"KHR_materials_transmission":{
					"transmissionFactor":1
				}
			},
			"name":"Sphere2",
			"pbrMetallicRoughness":{
				"metallicFactor":0,
				"roughnessFactor":0.10000000149011612
			}
		},
		{
			"doubleSided":true,
			"extensions":{
				"KHR_materials_transmission":{
					"transmissionFactor":1
				}
			},
			"name":"Sphere3",
			"pbrMetallicRoughness":{
				"metallicFactor":0,
				"roughnessFactor":0.20000000298023224
			}
		},
		{
			"doubleSided":true,
			"extensions":{
				"KHR_materials_transmission":{
					"transmissionFactor":1
				}
			},
			"name":"Sphere4",
			"pbrMetallicRoughness":{
				"metallicFactor":0,
				"roughnessFactor":0.4000000059604645
			}
		},
		{
			"doubleSided":true,
			"extensions":{
				"KHR_materials_transmission":{
					"transmissionFactor":1
				}
			},
			"name":"Sphere5",
			"pbrMetallicRoughness":{
				"metallicFactor":0,
				"roughnessFactor":0.800000011920929
			}
		},
		{
			"doubleSided":true,
			"emissiveFactor":[
				1,
				1,
				1
			],
			"extensions":{
				"KHR_materials_emissive_strength":{
					"emissiveStrength":10
				}
			},
			"name":"AreaLight",
			"pbrMetallicRoughness":{
				"baseColorFactor":[
					0.800000011920929,
					0.800000011920929,
					0.800000011920929,
					1
				],
				"metallicFactor":0,
				"roughnessFactor":0.5
			}
		}
	],
	"meshes":[
		{
			"name":"Plane",
			"primitives":[
				{
					"attributes":{
						"POSITION":0,
						"NORMAL":1,
						"TEXCOORD_0":2
					},
					"indices":3,
					"material":0
				}
			]
		},
		{
			"name":"Sphere1",
			"primitives":[
				{
					"attributes":{
						"POSITION":4,
						"NORMAL":5,
						"TEXCOORD_0":6
					},
					"indices":7,
					"material":1
				}
			]
		},
		{
			"name":"Sphere2",
			"primitives":[
				{
					"attributes":{
						"POSITION":8,
						"NORMAL":9,
						"TEXCOORD_0":10
					},
					"indices":7,
					"material":2
				}
			]
		},
		{
			"name":"Sphere3",
			"primitives":[
				{
					"attributes":{
						"POSITION":11,
						"NORMAL":12,
						"TEXCOORD_0":13
					},
					"indices":7,
					"material":3
				}
			]
		},
		{
			"name":"Sphere4",
			"primitives":[
				{
					"attributes":{
						"POSITION":14,
						"NORMAL":15,
						"TEXCOORD_0":16
					},
					"indices":7,
					"material":4
				}
			]
		},
		{
			"name":"Sphere5",
			"primitives":[
				{
					"attributes":{
						"POSITION":17,
						"NORMAL":18,
						"TEXCOORD_0":19
					},
					"indices":7,
					"material":5
				}
			]
		},
		{
			"name":"AreaLight",
			"primitives":[
				{
					"attributes":{
						"POSITION":20,
						"NORMAL":21,
						"TEXCOORD_0":22
					},
					"indices":3,
					"material":6
				}
			]
		}
	],
	"accessors":[
		{
			"bufferView":0,
			"componentType":5126,
			"count":4,
			"max":[
				1,
				0,
				1
			],
			"min":[
				-1,
				0,
				-1
			],
			"type":"VEC3"
		},
		{
			"bufferView":1,
			"componentType":5126,
			"count":4,
			"type":"VEC3"
		},
		{
			"bufferView":2,
			"componentType":5126,
			"count":4,
			"type":"VEC2"
		},
		{
			"bufferView":3,
			"componentType":5123,
			"count":6,
			"type":"SCALAR"
		},
		{
			"bufferView":4,
			"componentType":5126,
			"count":559,
			"max":[
				0.9999997019767761,
				1,
				0.9999993443489075
			],
			"min":[
				-0.9999990463256836,
				-1,
				-1
			],
			"type":"VEC3"
		},
		{
			"bufferView":5,
			"componentType":5126,
			"count":559,
			"type":"VEC3"
		},
		{
			"bufferView":6,
			"componentType":5126,
			"count":559,
			"type":"VEC2"
		},
		{
			"bufferView":7,
			"componentType":5123,
			"count":2880,
			"type":"SCALAR"
		},
		{
			"bufferView":8,
			"componentType":5126,
			"count":559,
			"max":[
				0.9999997019767761,
				1,
				0.9999993443489075
			],
			"min":[
				-0.9999990463256836,
				-1,
				-1
			],
			"type":"VEC3"
		},
		{
			"bufferView":9,
			"componentType":5126,
			"count":559,
			"type":"VEC3"
		},
		{
			"bufferView":10,
			"componentType":5126,
			"count":559,
			"type":"VEC2"
		},
		{
			"bufferView":11,
			"componentType":5126,
			"count":559,
			"max":[
				0.9999997019767761,
				1,
				0.9999993443489075
			],
			"min":[
				-0.9999990463256836,
				-1,
				-1
			],
			"type":"VEC3"
		},
		{
			"bufferView":12,
			"componentType":5126,
			"count":559,
			"type":"VEC3"
		},
		{
			"bufferView":13,
			"componentType":5126,
			"count":559,
			"type":"VEC2"
		},
		{
			"bufferView":14,
			"componentType":5126,
			"count":559,
			"max":[
				0.9999997019767761,
				1,
				0.9999993443489075
			],
			"min":[
				-0.9999990463256836,
				-1,
				-1
			],
			"type":"VEC3"
		},
		{
			"bufferView":15,
			"componentType":5126,
			"count":559,
			"type":"VEC3"
		},
		{
			"bufferView":16,
			"componentType":5126,
			"count":559,
			"type":"VEC2"
		},
		{
			"bufferView":17,
			"componentType":5126,
			"count":559,
			"max":[
				0.9999997019767761,
				1,
				0.9999993443489075
			],
			"min":[
				-0.9999990463256836,
				-1,
				-1
			],
			"type":"VEC3"
		},
		{
			"bufferView":18,
			"componentType":5126,
			"count":559,
			"type":"VEC3"
		},
		{
			"bufferView":19,
			"componentType":5126,
			"count":559,
			"type":"VEC2"
		},
		{
			"bufferView":20,
			"componentType":5126,
			"count":4,
			"max":[
				1,
				0,
				1
			],
			"min":[
				-1,
				0,
				-1
			],
			"type":"VEC3"
		},
		{
			"bufferView":21,
			"componentType":5126,
			"count":4,
			"type":"VEC3"
		},
		{
			"bufferView":22,
			"componentType":5126,
			"count":4,
			"type":"VEC2"
		}
	],
	"bufferViews":[
		{
			"buffer":0,
			"byteLength":48,
			"byteOffset":0,
			"target":34962
		},
		{
			"buffer":0,
			"byteLength":48,
			"byteOffset":48,
			"target":34962
		},
		{
			"buffer":0,
			"byteLength":32,
			"byteOffset":96,
			"target":34962
		},
		{
			"buffer":0,
			"byteLength":12,
			"byteOffset":128,
			"target":34963
		},
		{
			"buffer":0,
			"byteLength":6708,
			"byteOffset":140,
			"target":34962
		},
		{
			"buffer":0,
			"byteLength":6708,
			"byteOffset":6848,
			"target":34962
		},
		{
			"buffer":0,
			"byteLength":4472,
			"byteOffset":13556,
			"target":34962
		},
		{
			"buffer":0,
			"byteLength":5760,
			"byteOffset":18028,
			"target":34963
		},
		{
			"buffer":0,
			"byteLength":6708,
			"byteOffset":23788,
			"target":34962
		},
		{
			"buffer":0,
			"byteLength":6708,
			"byteOffset":30496,
			"target":34962
		},
		{
			"buffer":0,
			"byteLength":4472,
			"byteOffset":37204,
			"target":34962
		},
		{
			"buffer":0,
			"byteLength":6708,
			"byteOffset":41676,
			"target":34962
		},
		{
			"buffer":0,
			"byteLength":6708,
			"byteOffset":48384,
			"target":34962
		},
		{
			"buffer":0,
			"byteLength":4472,
			"byteOffset":55092,
			"target":34962
		},
		{
			"buffer":0,
			"byteLength":6708,
			"byteOffset":59564,
			"target":34962
		},
		{
			"buffer":0,
			"byteLength":6708,
			"byteOffset":66272,
			"target":34962
		},
		{
			"buffer":0,
			"byteLength":4472,
			"byteOffset":72980,
			"target":34962
		},
		{
			"buffer":0,
			"byteLength":6708,
			"byteOffset":77452,
			"target":34962
		},
		{
			"buffer":0,
			"byteLength":6708,
			"byteOffset":84160,
			"target":34962
		},
		{
			"buffer":0,
			"byteLength":4472,
			"byteOffset":90868,
			"target":34962
		},
		{
			"buffer":0,
			"byteLength":48,
			"byteOffset":95340,
			"target":34962
		},
		{
			"buffer":0,
			"byteLength":48,
			"byteOffset":95388,
			"target":34962
		},
		{
			"buffer":0,
			"byteLength":32,
			"byteOffset":95436,
			"target":34962
		}
	],
	"buffers":[
		{
			"byteLength":95468,
			"uri":"transmissive.bin"
		}
	]
}
