{
	"asset":{
		"generator":"Khronos glTF Blender I/O v4.0.43",
		"version":"2.0"
	},
	"extensionsUsed":[
		"KHR_materials_specular",
		"KHR_materials_ior",
		"KHR_materials_transmission",
		"KHR_materials_emissive_strength"
	],
	"scene":0,
	"scenes":[
		{
			"name":"Scene",
			"nodes":[
				0,
				3,
				4,
				5,
				6,
				7
			]
		}
	],
	"nodes":[
		{
			"mesh":0,
			"name":"Background",
			"scale":[
				6.650239944458008,
				6.650239944458008,
				6.650239944458008
			]
		},
		{
			"mesh":1,
			"name":"Diamond Holder"
		},
		{
			"mesh":2,
			"name":"Diamonds"
		},
		{
			"children":[
				1,
				2
			],
			"mesh":3,
			"name":"Ring",
			"translation":[
				-0.01241702027618885,
				0.643040657043457,
				0.003188835922628641
			]
		},
		{
			"camera":0,
			"name":"Camera",
			"rotation":[
				-0.12312328815460205,
				0.8444098830223083,
				0.21994423866271973,
				0.4726913273334503
			],
			"translation":[
				2.779773712158203,
				2.524738311767578,
				-1.6781558990478516
			]
		},
		{
			"mesh":4,
			"name":"AreaLight1",
			"rotation":[
				-0.9375424981117249,
				0,
				0,
				0.3478710353374481
			],
			"scale":[
				2.6050000190734863,
				1,
				0.5
			],
			"translation":[
				-0.012416999787092209,
				2.249350070953369,
				1.1647599935531616
			]
		},
		{
			"mesh":5,
			"name":"AreaLight2",
			"rotation":[
				-0.9942357540130615,
				0.0610528364777565,
				-0.011951581574976444,
				0.08732234686613083
			],
			"scale":[
				1.3049999475479126,
				0.5010380148887634,
				0.8335000872612
			],
			"translation":[
				0.06899300217628479,
				2.033139944076538,
				0.2075430005788803
			]
		},
		{
			"mesh":6,
			"name":"AreaLight3",
			"rotation":[
				-0.7128183841705322,
				-0.2259652018547058,
				-0.608995795249939,
				0.2644880712032318
			],
			"scale":[
				0.40085500478744507,
				1,
				1.4505449533462524
			],
			"translation":[
				-1.8102200031280518,
				2.1855099201202393,
				0.306192010641098
			]
		}
	],
	"cameras":[
		{
			"name":"Camera",
			"perspective":{
				"aspectRatio":1.7777777777777777,
				"yfov":0.39959652046304894,
				"zfar":1000,
				"znear":0.10000000149011612
			},
			"type":"perspective"
		}
	],
	"materials":[
		{
			"doubleSided":true,
			"extensions":{
				"KHR_materials_specular":{
					"specularFactor":0.7339449524879456
				},
				"KHR_materials_ior":{
					"ior":1.4500000476837158
				}
			},
			"name":"Background",
			"pbrMetallicRoughness":{
				"baseColorFactor":[
					0.05000000074505806,
					0.05000000074505806,
					0.05000000074505806,
					1
				],
				"roughnessFactor":0.9816513657569885
			}
		},
		{
			"doubleSided":true,
			"name":"White Gold",
			"pbrMetallicRoughness":{
				"baseColorFactor":[
					0.800000011920929,
					0.800000011920929,
					0.800000011920929,
					1
				],
				"roughnessFactor":0.19266051054000854
			}
		},
		{
			"doubleSided":true,
			"extensions":{
				"KHR_materials_transmission":{
					"transmissionFactor":1
				},
				"KHR_materials_ior":{
					"ior":2.5
				}
			},
			"name":"DiamondMat",
			"pbrMetallicRoughness":{
				"metallicFactor":0,
				"roughnessFactor":0
			}
		},
		{
			"doubleSided":true,
			"emissiveFactor":[
				1,
				1,
				1
			],
			"extensions":{
				"KHR_materials_emissive_strength":{
					"emissiveStrength":20
				}
			},
			"name":"AreaLight1",
			"pbrMetallicRoughness":{
				"metallicFactor":0,
				"roughnessFactor":0
			}
		},
		{
			"doubleSided":true,
			"emissiveFactor":[
				1,
				1,
				1
			],
			"extensions":{
				"KHR_materials_emissive_strength":{
					"emissiveStrength":20
				}
			},
			"name":"AreaLight2",
			"pbrMetallicRoughness":{
				"metallicFactor":0,
				"roughnessFactor":0
			}
		},
		{
			"doubleSided":true,
			"emissiveFactor":[
				1,
				1,
				1
			],
			"extensions":{
				"KHR_materials_emissive_strength":{
					"emissiveStrength":20
				}
			},
			"name":"AreaLight3",
			"pbrMetallicRoughness":{
				"metallicFactor":0,
				"roughnessFactor":0
			}
		}
	],
	"meshes":[
		{
			"name":"Plane",
			"primitives":[
				{
					"attributes":{
						"POSITION":0,
						"NORMAL":1,
						"TEXCOORD_0":2
					},
					"indices":3,
					"material":0
				}
			]
		},
		{
			"name":"Circle.002",
			"primitives":[
				{
					"attributes":{
						"POSITION":4,
						"NORMAL":5,
						"TEXCOORD_0":6
					},
					"indices":7,
					"material":1
				}
			]
		},
		{
			"name":"Radiant",
			"primitives":[
				{
					"attributes":{
						"POSITION":8,
						"NORMAL":9
					},
					"indices":10,
					"material":2
				}
			]
		},
		{
			"name":"Cylinder.001",
			"primitives":[
				{
					"attributes":{
						"POSITION":11,
						"NORMAL":12,
						"TEXCOORD_0":13
					},
					"indices":14,
					"material":1
				}
			]
		},
		{
			"name":"AreaLight1",
			"primitives":[
				{
					"attributes":{
						"POSITION":15,
						"NORMAL":16,
						"TEXCOORD_0":17
					},
					"indices":3,
					"material":3
				}
			]
		},
		{
			"name":"AreaLight2",
			"primitives":[
				{
					"attributes":{
						"POSITION":18,
						"NORMAL":19,
						"TEXCOORD_0":20
					},
					"indices":3,
					"material":4
				}
			]
		},
		{
			"name":"AreaLight3",
			"primitives":[
				{
					"attributes":{
						"POSITION":21,
						"NORMAL":22,
						"TEXCOORD_0":23
					},
					"indices":3,
					"material":5
				}
			]
		}
	],
	"accessors":[
		{
			"bufferView":0,
			"componentType":5126,
			"count":4,
			"max":[
				1,
				0,
				1
			],
			"min":[
				-1,
				0,
				-1
			],
			"type":"VEC3"
		},
		{
			"bufferView":1,
			"componentType":5126,
			"count":4,
			"type":"VEC3"
		},
		{
			"bufferView":2,
			"componentType":5126,
			"count":4,
			"type":"VEC2"
		},
		{
			"bufferView":3,
			"componentType":5123,
			"count":6,
			"type":"SCALAR"
		},
		{
			"bufferView":4,
			"componentType":5126,
			"count":6290,
			"max":[
				0.5460288524627686,
				0.7109917998313904,
				0.12134182453155518
			],
			"min":[
				-0.5452342629432678,
				0.3337286710739136,
				-0.12134192138910294
			],
			"type":"VEC3"
		},
		{
			"bufferView":5,
			"componentType":5126,
			"count":6290,
			"type":"VEC3"
		},
		{
			"bufferView":6,
			"componentType":5126,
			"count":6290,
			"type":"VEC2"
		},
		{
			"bufferView":7,
			"componentType":5123,
			"count":37728,
			"type":"SCALAR"
		},
		{
			"bufferView":8,
			"componentType":5126,
			"count":1120,
			"max":[
				0.5036512613296509,
				0.7060785889625549,
				0.1056261956691742
			],
			"min":[
				-0.5037073493003845,
				0.43086832761764526,
				-0.10562627762556076
			],
			"type":"VEC3"
		},
		{
			"bufferView":9,
			"componentType":5126,
			"count":1120,
			"type":"VEC3"
		},
		{
			"bufferView":10,
			"componentType":5123,
			"count":1530,
			"type":"SCALAR"
		},
		{
			"bufferView":11,
			"componentType":5126,
			"count":2044,
			"max":[
				0.6437459588050842,
				0.6425706148147583,
				0.09455233812332153
			],
			"min":[
				-0.6437461376190186,
				-0.6437461376190186,
				-0.0945521891117096
			],
			"type":"VEC3"
		},
		{
			"bufferView":12,
			"componentType":5126,
			"count":2044,
			"type":"VEC3"
		},
		{
			"bufferView":13,
			"componentType":5126,
			"count":2044,
			"type":"VEC2"
		},
		{
			"bufferView":14,
			"componentType":5123,
			"count":9018,
			"type":"SCALAR"
		},
		{
			"bufferView":15,
			"componentType":5126,
			"count":4,
			"max":[
				1,
				0,
				1
			],
			"min":[
				-1,
				0,
				-1
			],
			"type":"VEC3"
		},
		{
			"bufferView":16,
			"componentType":5126,
			"count":4,
			"type":"VEC3"
		},
		{
			"bufferView":17,
			"componentType":5126,
			"count":4,
			"type":"VEC2"
		},
		{
			"bufferView":18,
			"componentType":5126,
			"count":4,
			"max":[
				1,
				0,
				1
			],
			"min":[
				-1,
				0,
				-1
			],
			"type":"VEC3"
		},
		{
			"bufferView":19,
			"componentType":5126,
			"count":4,
			"type":"VEC3"
		},
		{
			"bufferView":20,
			"componentType":5126,
			"count":4,
			"type":"VEC2"
		},
		{
			"bufferView":21,
			"componentType":5126,
			"count":4,
			"max":[
				1,
				0,
				1
			],
			"min":[
				-1,
				0,
				-1
			],
			"type":"VEC3"
		},
		{
			"bufferView":22,
			"componentType":5126,
			"count":4,
			"type":"VEC3"
		},
		{
			"bufferView":23,
			"componentType":5126,
			"count":4,
			"type":"VEC2"
		}
	],
	"bufferViews":[
		{
			"buffer":0,
			"byteLength":48,
			"byteOffset":0,
			"target":34962
		},
		{
			"buffer":0,
			"byteLength":48,
			"byteOffset":48,
			"target":34962
		},
		{
			"buffer":0,
			"byteLength":32,
			"byteOffset":96,
			"target":34962
		},
		{
			"buffer":0,
			"byteLength":12,
			"byteOffset":128,
			"target":34963
		},
		{
			"buffer":0,
			"byteLength":75480,
			"byteOffset":140,
			"target":34962
		},
		{
			"buffer":0,
			"byteLength":75480,
			"byteOffset":75620,
			"target":34962
		},
		{
			"buffer":0,
			"byteLength":50320,
			"byteOffset":151100,
			"target":34962
		},
		{
			"buffer":0,
			"byteLength":75456,
			"byteOffset":201420,
			"target":34963
		},
		{
			"buffer":0,
			"byteLength":13440,
			"byteOffset":276876,
			"target":34962
		},
		{
			"buffer":0,
			"byteLength":13440,
			"byteOffset":290316,
			"target":34962
		},
		{
			"buffer":0,
			"byteLength":3060,
			"byteOffset":303756,
			"target":34963
		},
		{
			"buffer":0,
			"byteLength":24528,
			"byteOffset":306816,
			"target":34962
		},
		{
			"buffer":0,
			"byteLength":24528,
			"byteOffset":331344,
			"target":34962
		},
		{
			"buffer":0,
			"byteLength":16352,
			"byteOffset":355872,
			"target":34962
		},
		{
			"buffer":0,
			"byteLength":18036,
			"byteOffset":372224,
			"target":34963
		},
		{
			"buffer":0,
			"byteLength":48,
			"byteOffset":390260,
			"target":34962
		},
		{
			"buffer":0,
			"byteLength":48,
			"byteOffset":390308,
			"target":34962
		},
		{
			"buffer":0,
			"byteLength":32,
			"byteOffset":390356,
			"target":34962
		},
		{
			"buffer":0,
			"byteLength":48,
			"byteOffset":390388,
			"target":34962
		},
		{
			"buffer":0,
			"byteLength":48,
			"byteOffset":390436,
			"target":34962
		},
		{
			"buffer":0,
			"byteLength":32,
			"byteOffset":390484,
			"target":34962
		},
		{
			"buffer":0,
			"byteLength":48,
			"byteOffset":390516,
			"target":34962
		},
		{
			"buffer":0,
			"byteLength":48,
			"byteOffset":390564,
			"target":34962
		},
		{
			"buffer":0,
			"byteLength":32,
			"byteOffset":390612,
			"target":34962
		}
	],
	"buffers":[
		{
			"byteLength":390644,
			"uri":"alliance_ring.bin"
		}
	]
}
